<svg width="285" height="245" viewBox="0 0 285 245" fill="none" xmlns="http://www.w3.org/2000/svg">
<g clip-path="url(#clip0_203_107)" filter="url(#filter0_d_203_107)">
<path d="M255 93C315.5 140.5 264 236 138 236C63.4415 236 104.18 165.933 37.4999 160.5C-29.9999 155 12.4997 -24.5 95.9999 31.9999C149.452 68.1678 194.5 45.5 255 93Z" fill="#EBEBEB"/>
<path d="M256.594 236.167C256.594 236.247 204.065 236.316 139.317 236.316C74.5686 236.316 22 236.247 22 236.167C22 236.087 74.5171 236.018 139.317 236.018C204.117 236.018 256.594 236.081 256.594 236.167Z" fill="#263238"/>
<path d="M178.333 188.044L114.528 187.746C112.704 187.738 110.898 187.37 109.215 186.664C107.533 185.958 106.005 184.928 104.721 183.632C103.436 182.335 102.42 180.799 101.729 179.11C101.038 177.421 100.687 175.612 100.695 173.787L101.37 13.8388C101.379 12.0132 101.746 10.2071 102.453 8.52367C103.159 6.8402 104.19 5.31233 105.487 4.02729C106.783 2.74224 108.321 1.7252 110.01 1.03422C111.7 0.343241 113.509 -0.0081396 115.335 0.000143087L179.134 0.297626C182.818 0.31428 186.345 1.79351 188.939 4.41007C191.533 7.02662 192.982 10.5663 192.967 14.2507L192.291 174.199C192.285 176.025 191.918 177.832 191.213 179.516C190.508 181.2 189.477 182.728 188.181 184.014C186.885 185.3 185.348 186.317 183.658 187.009C181.968 187.7 180.159 188.052 178.333 188.044Z" fill="#808080"/>
<path d="M179.042 5.81823L166.674 5.76102C166.271 5.76772 165.873 5.85388 165.503 6.01456C165.133 6.17524 164.799 6.4073 164.519 6.69744C164.238 6.98758 164.018 7.3301 163.871 7.7054C163.723 8.08071 163.651 8.48141 163.659 8.88459V11.1271C163.667 11.5306 163.595 11.9316 163.447 12.3072C163.3 12.6828 163.08 13.0258 162.8 13.3163C162.52 13.6069 162.185 13.8395 161.815 14.0008C161.446 14.1621 161.048 14.249 160.644 14.2564L136.531 14.142C135.716 14.1196 134.944 13.7751 134.383 13.1843C133.823 12.5934 133.519 11.8043 133.539 10.9898L133.562 8.75873C133.582 7.94431 133.278 7.15518 132.717 6.56431C132.156 5.97344 131.384 5.62902 130.57 5.60656H126.222L115.392 5.55507C114.111 5.54828 112.841 5.79483 111.655 6.28054C110.469 6.76625 109.391 7.48154 108.482 8.3853C107.574 9.28906 106.853 10.3635 106.361 11.5468C105.869 12.7301 105.616 13.999 105.616 15.2805L104.958 171.339C104.952 172.616 105.197 173.883 105.681 175.065C106.164 176.248 106.876 177.324 107.776 178.231C108.675 179.139 109.745 179.86 110.923 180.354C112.101 180.848 113.365 181.105 114.643 181.11L178.316 181.407C179.597 181.414 180.867 181.168 182.053 180.682C183.239 180.196 184.317 179.481 185.226 178.577C186.134 177.673 186.855 176.599 187.347 175.416C187.839 174.232 188.093 172.964 188.093 171.682L188.756 15.5608C188.758 14.2831 188.509 13.0176 188.022 11.8364C187.535 10.6552 186.82 9.58159 185.918 8.67684C185.016 7.77208 183.944 7.05394 182.764 6.56345C181.585 6.07296 180.32 5.81973 179.042 5.81823Z" fill="#FAFAFA"/>
<path d="M156.319 24.3423H139.895V27.3572H156.319V24.3423Z" fill="#808080"/>
<path d="M120.507 49.7371C120.638 49.7402 120.768 49.7575 120.896 49.7885C121.014 49.7574 121.135 49.7401 121.256 49.7371H120.507Z" fill="#808080"/>
<path d="M125.009 41.4645C124.708 41.0477 124.341 40.6825 123.922 40.3833C123.046 39.7366 121.985 39.3877 120.896 39.3877C119.807 39.3877 118.746 39.7366 117.87 40.3833C117.449 40.6825 117.08 41.0476 116.777 41.4645C116.477 41.8559 116.242 42.2923 116.079 42.7575C115.78 43.5645 115.689 44.4334 115.813 45.2849C115.937 46.1363 116.272 46.9431 116.788 47.6316C116.851 47.7174 116.92 47.7918 116.983 47.8661C117.195 47.183 117.601 46.5761 118.151 46.1191C118.702 45.6622 119.373 45.3747 120.083 45.2918C119.639 45.0977 119.262 44.7773 118.999 44.3704C118.735 43.9635 118.597 43.4881 118.602 43.0035C118.579 42.6847 118.623 42.3648 118.729 42.0636C118.836 41.7624 119.003 41.4863 119.221 41.2526C119.439 41.0189 119.703 40.8326 119.996 40.7051C120.289 40.5777 120.605 40.512 120.924 40.512C121.244 40.512 121.56 40.5777 121.853 40.7051C122.146 40.8326 122.41 41.0189 122.628 41.2526C122.845 41.4863 123.013 41.7624 123.119 42.0636C123.226 42.3648 123.269 42.6847 123.247 43.0035C123.252 43.4874 123.114 43.9619 122.852 44.3686C122.589 44.7753 122.214 45.0962 121.771 45.2918C122.474 45.3764 123.136 45.6646 123.677 46.121C124.218 46.5774 124.613 47.1821 124.815 47.8604L125.003 47.6316C125.519 46.9431 125.855 46.1363 125.979 45.2849C126.103 44.4334 126.011 43.5645 125.713 42.7575C125.546 42.2931 125.308 41.8571 125.009 41.4645Z" fill="#FAFAFA"/>
<path d="M125.998 42.6547C125.829 42.1592 125.582 41.6938 125.266 41.276C124.947 40.8366 124.561 40.4505 124.122 40.1318C123.19 39.4407 122.061 39.0676 120.901 39.0676C119.741 39.0676 118.612 39.4407 117.68 40.1318C117.239 40.4486 116.853 40.835 116.536 41.276C116.221 41.6949 115.972 42.16 115.798 42.6547C115.473 43.5718 115.397 44.5593 115.581 45.5151C115.738 46.3485 116.091 47.1327 116.611 47.8034C117.356 48.7698 118.413 49.4472 119.603 49.7199C119.919 49.7958 120.244 49.8342 120.569 49.8343C120.681 49.8493 120.795 49.8493 120.907 49.8343C120.779 49.8033 120.649 49.786 120.518 49.7828H121.267C121.146 49.7859 121.025 49.8032 120.907 49.8343C121.019 49.8493 121.132 49.8493 121.244 49.8343C121.57 49.8342 121.895 49.7958 122.211 49.7199C123.399 49.4469 124.455 48.7694 125.198 47.8034C125.721 47.1346 126.076 46.3498 126.233 45.5151C126.413 44.5579 126.332 43.5697 125.998 42.6547ZM125.947 45.4579C125.803 46.2581 125.472 47.0129 124.98 47.6604L124.791 47.8892C124.59 47.2109 124.194 46.6062 123.654 46.1498C123.113 45.6934 122.45 45.4052 121.748 45.3206C122.191 45.125 122.566 44.8041 122.828 44.3974C123.091 43.9907 123.228 43.5162 123.224 43.0323C123.246 42.7135 123.203 42.3936 123.096 42.0924C122.99 41.7912 122.822 41.5151 122.604 41.2814C122.386 41.0477 122.123 40.8614 121.83 40.7339C121.537 40.6065 121.221 40.5408 120.901 40.5408C120.582 40.5408 120.266 40.6065 119.973 40.7339C119.68 40.8614 119.416 41.0477 119.198 41.2814C118.98 41.5151 118.813 41.7912 118.706 42.0924C118.6 42.3936 118.556 42.7135 118.579 43.0323C118.574 43.517 118.712 43.9923 118.975 44.3992C119.239 44.8061 119.616 45.1265 120.06 45.3206C119.35 45.4035 118.678 45.6909 118.128 46.1479C117.578 46.6049 117.172 47.2118 116.96 47.8949C116.897 47.8206 116.828 47.7462 116.765 47.6604C116.249 46.9719 115.914 46.1651 115.79 45.3137C115.666 44.4622 115.757 43.5933 116.056 42.7863C116.219 42.3211 116.454 41.8847 116.754 41.4933C117.057 41.0764 117.426 40.7113 117.846 40.4121C118.723 39.7654 119.783 39.4165 120.873 39.4165C121.962 39.4165 123.022 39.7654 123.899 40.4121C124.317 40.7113 124.684 41.0765 124.986 41.4933C125.285 41.8859 125.522 42.3219 125.69 42.7863C126.01 43.6384 126.099 44.5602 125.947 45.4579Z" fill="#808080"/>
<path d="M182.703 54.5539C182.703 54.5539 182.869 54.5539 183.178 54.4909C183.636 54.3962 184.059 54.1741 184.397 53.8502C184.668 53.5879 184.877 53.2685 185.01 52.9153C185.142 52.5621 185.195 52.1838 185.163 51.8079C185.163 50.8983 185.163 49.8514 185.163 48.6786C185.163 46.3216 185.163 43.444 185.135 40.0974C185.135 39.2621 185.135 38.3811 185.135 37.5001C185.158 37.0561 185.059 36.6142 184.848 36.2227C184.637 35.8313 184.323 35.5053 183.939 35.2804C183.149 34.7827 182.12 35.0001 181.13 34.9543H178.052L112.263 35.0001C111.888 35.0016 111.519 35.0921 111.185 35.2641C110.852 35.4362 110.565 35.6849 110.346 35.9898C110.129 36.2946 109.989 36.6482 109.94 37.0196C109.911 37.4002 109.901 37.7821 109.912 38.1637V52.1168C109.928 52.4701 110.024 52.8151 110.193 53.1261C110.361 53.4371 110.597 53.7061 110.884 53.9131C111.167 54.1199 111.494 54.2589 111.839 54.3193C112.2 54.3619 112.564 54.3752 112.926 54.3594H125.89L155.461 54.3937L175.392 54.4452L180.815 54.4738H182.223C182.543 54.4738 182.703 54.4738 182.703 54.4738H182.223H180.815L175.392 54.5081L155.461 54.5596L125.89 54.5939H112.926C112.544 54.6068 112.162 54.5915 111.782 54.5481C111.186 54.4412 110.644 54.135 110.245 53.6798C109.846 53.2245 109.614 52.6472 109.585 52.0424C109.585 49.0104 109.585 45.9288 109.585 42.7976V38.0722C109.585 37.6717 109.585 37.2884 109.585 36.8594C109.648 36.4468 109.806 36.0548 110.049 35.7152C110.296 35.3632 110.624 35.0755 111.005 34.8764C111.386 34.6773 111.81 34.5726 112.24 34.571L178.029 34.6168H182.606C183.108 34.5979 183.605 34.7251 184.036 34.9829C184.45 35.2278 184.788 35.5811 185.015 36.0047C185.242 36.4282 185.349 36.9058 185.323 37.3857C185.323 38.2781 185.323 39.1477 185.323 39.9829C185.323 43.3239 185.323 46.2015 185.295 48.5642C185.295 49.7369 185.295 50.7838 185.295 51.6935C185.321 52.0817 185.26 52.4708 185.118 52.8328C184.976 53.1949 184.755 53.5209 184.471 53.7873C184.12 54.1114 183.683 54.3278 183.212 54.4109C183.051 54.4834 182.879 54.5316 182.703 54.5539Z" fill="#808080"/>
<path d="M149.672 39.9714H131.09V41.3673H149.672V39.9714Z" fill="#808080"/>
<path d="M163.642 47.8435H131.09V49.2394H163.642V47.8435Z" fill="#808080"/>
<path d="M178.264 43.8103H131.09V45.2062H178.264V43.8103Z" fill="#808080"/>
<path d="M120.507 99.0276C120.759 99.0619 120.896 99.0619 120.896 99.0848C121.014 99.0536 121.135 99.0364 121.256 99.0333L120.507 99.0276Z" fill="#808080"/>
<path d="M125.009 90.7609C124.709 90.3428 124.342 89.9774 123.922 89.6797C123.046 89.033 121.985 88.6841 120.896 88.6841C119.807 88.6841 118.746 89.033 117.87 89.6797C117.05 90.2758 116.427 91.1022 116.079 92.0538C115.78 92.8609 115.689 93.7298 115.813 94.5812C115.937 95.4327 116.272 96.2395 116.788 96.928L116.983 97.1625C117.193 96.4783 117.598 95.8702 118.149 95.4129C118.7 94.9557 119.372 94.669 120.083 94.5882C119.639 94.3941 119.262 94.0737 118.999 93.6668C118.735 93.2599 118.597 92.7845 118.602 92.2998C118.579 91.9811 118.623 91.6612 118.729 91.36C118.836 91.0588 119.003 90.7827 119.221 90.549C119.439 90.3153 119.703 90.129 119.996 90.0015C120.289 89.8741 120.605 89.8083 120.924 89.8083C121.244 89.8083 121.56 89.8741 121.853 90.0015C122.146 90.129 122.41 90.3153 122.628 90.549C122.845 90.7827 123.013 91.0588 123.119 91.36C123.226 91.6612 123.269 91.9811 123.247 92.2998C123.251 92.7836 123.113 93.2579 122.851 93.6644C122.589 94.0709 122.213 94.392 121.771 94.5882C122.473 94.6716 123.136 94.9588 123.676 95.4142C124.217 95.8696 124.613 96.4734 124.815 97.1511L125.003 96.928C125.519 96.2395 125.855 95.4327 125.979 94.5812C126.103 93.7298 126.011 92.8609 125.713 92.0538C125.546 91.5895 125.308 91.1535 125.009 90.7609Z" fill="#FAFAFA"/>
<path d="M125.998 91.9509C125.831 91.4529 125.583 90.9853 125.266 90.5665C124.947 90.1272 124.561 89.741 124.122 89.4223C123.19 88.7313 122.061 88.3582 120.901 88.3582C119.741 88.3582 118.612 88.7313 117.68 89.4223C116.817 90.0641 116.16 90.9453 115.792 91.9566C115.466 92.8736 115.391 93.8613 115.575 94.8171C115.732 95.6506 116.085 96.4348 116.605 97.1054C117.352 98.0685 118.409 98.7436 119.597 99.0161C119.913 99.0961 120.238 99.1365 120.564 99.1363C120.676 99.1512 120.789 99.1512 120.901 99.1363C120.901 99.1363 120.764 99.1363 120.512 99.0791H121.262C121.14 99.0821 121.019 99.0994 120.901 99.1306C121.013 99.1455 121.127 99.1455 121.239 99.1306C121.565 99.1308 121.889 99.0904 122.205 99.0104C123.392 98.7376 124.447 98.0624 125.192 97.0997C125.714 96.4302 126.069 95.6457 126.227 94.8113C126.411 93.8547 126.331 92.8663 125.998 91.9509ZM125.947 94.7541C125.806 95.5423 125.482 96.2867 125.003 96.928L124.814 97.1511C124.612 96.4735 124.217 95.8697 123.676 95.4142C123.135 94.9588 122.473 94.6717 121.771 94.5882C122.213 94.3921 122.588 94.071 122.85 93.6645C123.113 93.2579 123.25 92.7836 123.247 92.2999C123.269 91.9812 123.226 91.6613 123.119 91.36C123.012 91.0588 122.845 90.7828 122.627 90.5491C122.409 90.3154 122.146 90.129 121.853 90.0016C121.56 89.8742 121.244 89.8084 120.924 89.8084C120.605 89.8084 120.288 89.8742 119.995 90.0016C119.702 90.129 119.439 90.3154 119.221 90.5491C119.003 90.7828 118.836 91.0588 118.729 91.36C118.622 91.6613 118.579 91.9812 118.601 92.2999C118.597 92.7846 118.735 93.26 118.998 93.6668C119.262 94.0737 119.639 94.3941 120.083 94.5882C119.372 94.6691 118.7 94.9557 118.149 95.413C117.598 95.8703 117.193 96.4783 116.982 97.1626L116.788 96.928C116.272 96.2396 115.936 95.4328 115.813 94.5813C115.689 93.7298 115.78 92.8609 116.078 92.0539C116.426 91.1023 117.05 90.2758 117.869 89.6798C118.746 89.0331 119.806 88.6841 120.895 88.6841C121.985 88.6841 123.045 89.0331 123.922 89.6798C124.341 89.9775 124.709 90.3429 125.009 90.761C125.308 91.1535 125.545 91.5895 125.712 92.0539C126.03 92.9169 126.111 93.8493 125.947 94.7541Z" fill="#808080"/>
<path d="M182.703 103.85C182.703 103.85 182.869 103.85 183.178 103.787C183.637 103.693 184.059 103.47 184.397 103.147C184.669 102.884 184.879 102.563 185.011 102.209C185.144 101.855 185.196 101.475 185.163 101.098C185.163 100.195 185.163 99.1477 185.163 97.9692C185.163 95.618 185.163 92.7347 185.135 89.388C185.135 88.5527 185.135 87.6717 185.135 86.7964C185.158 86.3517 185.059 85.9091 184.848 85.5167C184.637 85.1244 184.323 84.7973 183.939 84.571C183.15 84.0733 182.12 84.2907 181.13 84.245H178.052L112.263 84.2964C111.888 84.2965 111.518 84.3864 111.185 84.5586C110.851 84.7307 110.564 84.9802 110.346 85.2861C110.128 85.5885 109.989 85.9404 109.94 86.3102C109.911 86.6908 109.902 87.0727 109.912 87.4543V101.436C109.929 101.789 110.025 102.134 110.194 102.445C110.362 102.756 110.598 103.025 110.884 103.232C111.167 103.439 111.494 103.578 111.84 103.639C112.2 103.678 112.564 103.692 112.927 103.679H125.89L155.461 103.713L175.392 103.77H180.816L175.392 103.799L155.461 103.856L125.89 103.89H112.927C112.545 103.905 112.162 103.892 111.782 103.85C111.202 103.746 110.672 103.453 110.276 103.016C109.88 102.579 109.639 102.024 109.591 101.436C109.591 98.404 109.591 95.3224 109.591 92.1912V87.4658C109.591 87.0653 109.591 86.6878 109.591 86.253C109.649 85.8304 109.808 85.4281 110.055 85.0802C110.302 84.7288 110.631 84.4417 111.012 84.2427C111.393 84.0437 111.816 83.9385 112.246 83.936L178.035 83.9818H182.612C182.977 83.9676 183.341 84.03 183.68 84.1648C184.02 84.2996 184.328 84.504 184.583 84.7647C184.839 85.0255 185.038 85.3368 185.166 85.6788C185.295 86.0209 185.35 86.386 185.329 86.7507C185.329 87.6431 185.329 88.507 185.329 89.3422C185.329 92.6832 185.329 95.5665 185.301 97.9234C185.301 99.1019 185.301 100.149 185.301 101.053C185.327 101.441 185.267 101.83 185.124 102.192C184.982 102.554 184.761 102.88 184.477 103.147C184.126 103.472 183.689 103.69 183.218 103.776C183.051 103.825 182.878 103.851 182.703 103.85Z" fill="#808080"/>
<path d="M149.672 89.2622H131.09V90.6581H149.672V89.2622Z" fill="#808080"/>
<path d="M163.642 97.1396H131.09V98.5355H163.642V97.1396Z" fill="#808080"/>
<path d="M178.264 93.1064H131.09V94.5023H178.264V93.1064Z" fill="#808080"/>
<path d="M109.926 61.1099L109.884 76.3215C109.88 77.5632 110.884 78.5726 112.126 78.5761L183.098 78.7743C184.34 78.7778 185.349 77.774 185.352 76.5323L185.395 61.3207C185.398 60.079 184.395 59.0696 183.153 59.0661L112.181 58.8679C110.939 58.8645 109.93 59.8682 109.926 61.1099Z" fill="#CCCCCC"/>
<path d="M149.859 64.0958L131.278 64.0439L131.274 65.4398L149.856 65.4917L149.859 64.0958Z" fill="#FAFAFA"/>
<path d="M163.808 72.0064L131.256 71.9155L131.252 73.3114L163.804 73.4023L163.808 72.0064Z" fill="#FAFAFA"/>
<path d="M178.441 68.0199L131.268 67.8882L131.264 69.2841L178.437 69.4158L178.441 68.0199Z" fill="#FAFAFA"/>
<path d="M121.954 69.3308C122.393 69.1249 122.762 68.7954 123.016 68.3828C123.27 67.9702 123.398 67.4925 123.384 67.0081C123.401 66.6894 123.352 66.3707 123.24 66.0717C123.129 65.7727 122.957 65.4999 122.735 65.2702C122.514 65.0405 122.247 64.8587 121.952 64.7363C121.658 64.6138 121.341 64.5533 121.022 64.5584C120.703 64.5635 120.388 64.6342 120.097 64.766C119.807 64.8978 119.546 65.088 119.332 65.3247C119.118 65.5614 118.955 65.8395 118.853 66.1419C118.751 66.4443 118.712 66.7645 118.739 67.0825C118.738 67.5723 118.883 68.0514 119.155 68.4588C119.427 68.8663 119.814 69.1837 120.266 69.3708C119.535 69.4739 118.851 69.7922 118.301 70.2853C117.751 70.7783 117.36 71.4238 117.177 72.1397C118.031 73.0662 119.187 73.6584 120.438 73.8102H121.868C123.133 73.6184 124.285 72.9715 125.106 71.9909C124.909 71.2821 124.503 70.6492 123.94 70.1747C123.378 69.7002 122.686 69.4061 121.954 69.3308Z" fill="#FAFAFA"/>
<path d="M121.176 73.8445C121.176 73.8044 121.645 73.8445 122.446 73.5928C123.142 73.3968 123.789 73.0577 124.345 72.5973C124.902 72.1369 125.357 71.5652 125.68 70.919C126.003 70.2727 126.188 69.5661 126.222 68.8444C126.256 68.1227 126.139 67.4017 125.879 66.7278C125.704 66.2656 125.459 65.8332 125.152 65.4463C124.838 65.0353 124.462 64.6763 124.037 64.3822C123.141 63.7568 122.07 63.4325 120.977 63.4561C119.885 63.4798 118.829 63.8502 117.961 64.5138C117.548 64.8253 117.187 65.1998 116.891 65.6237C116.601 66.0233 116.373 66.4651 116.216 66.9337C115.985 67.6185 115.898 68.344 115.961 69.0641C116.025 69.7842 116.238 70.4833 116.586 71.1169C116.934 71.7505 117.41 72.3049 117.983 72.7449C118.557 73.1849 119.215 73.5009 119.918 73.6729C120.73 73.8674 121.205 73.8273 121.199 73.8674C120.763 73.9116 120.322 73.8845 119.895 73.7873C118.705 73.5378 117.638 72.8851 116.874 71.9395C116.345 71.2866 115.976 70.5184 115.799 69.6969C115.594 68.7463 115.65 67.7583 115.959 66.8365C116.302 65.8199 116.937 64.9267 117.784 64.2678C118.698 63.5603 119.815 63.1651 120.97 63.1404C122.126 63.1157 123.259 63.4628 124.203 64.1305C124.652 64.4464 125.048 64.8328 125.375 65.2747C125.698 65.6861 125.955 66.1455 126.136 66.6363C126.487 67.5467 126.584 68.5354 126.416 69.4967C126.243 70.5081 125.782 71.448 125.088 72.2039C124.394 72.9598 123.496 73.4996 122.503 73.7587C122.069 73.8621 121.62 73.8912 121.176 73.8445Z" fill="#FAFAFA"/>
<path d="M143.007 166.459C142.96 166.774 142.802 167.062 142.561 167.27C142.32 167.478 142.012 167.592 141.694 167.592C141.375 167.592 141.068 167.478 140.827 167.27C140.586 167.062 140.427 166.774 140.381 166.459C140.427 166.144 140.586 165.857 140.827 165.649C141.068 165.441 141.375 165.326 141.694 165.326C142.012 165.326 142.32 165.441 142.561 165.649C142.802 165.857 142.96 166.144 143.007 166.459Z" fill="#808080"/>
<path d="M147.08 166.476C147.117 166.744 147.072 167.017 146.949 167.258C146.827 167.5 146.634 167.698 146.396 167.827C146.158 167.955 145.887 168.008 145.618 167.978C145.349 167.948 145.096 167.837 144.892 167.659C144.688 167.481 144.544 167.245 144.478 166.983C144.412 166.72 144.428 166.444 144.523 166.191C144.619 165.938 144.789 165.72 145.012 165.566C145.235 165.413 145.499 165.331 145.77 165.332C146.095 165.31 146.416 165.418 146.662 165.633C146.907 165.847 147.058 166.151 147.08 166.476Z" fill="#808080"/>
<path d="M151.147 166.493C151.184 166.761 151.139 167.035 151.017 167.276C150.894 167.518 150.701 167.716 150.463 167.845C150.224 167.973 149.952 168.026 149.683 167.995C149.414 167.965 149.161 167.853 148.957 167.674C148.754 167.496 148.61 167.259 148.544 166.996C148.479 166.733 148.496 166.457 148.592 166.204C148.689 165.951 148.86 165.733 149.084 165.581C149.307 165.428 149.572 165.347 149.843 165.349C150.167 165.329 150.487 165.438 150.731 165.652C150.976 165.866 151.125 166.169 151.147 166.493Z" fill="#808080"/>
<path d="M120.507 124.594C120.759 124.628 120.896 124.628 120.896 124.651C120.896 124.674 121.022 124.651 121.256 124.599L120.507 124.594Z" fill="#808080"/>
<path d="M125.009 116.31C124.708 115.895 124.34 115.532 123.922 115.235C123.046 114.588 121.985 114.239 120.896 114.239C119.807 114.239 118.746 114.588 117.87 115.235C117.45 115.532 117.081 115.895 116.777 116.31C116.477 116.704 116.242 117.142 116.079 117.609C115.78 118.416 115.689 119.285 115.813 120.136C115.937 120.988 116.272 121.794 116.788 122.483C116.851 122.563 116.92 122.637 116.983 122.712C117.195 122.029 117.601 121.422 118.151 120.966C118.702 120.51 119.373 120.224 120.083 120.143C119.635 119.947 119.254 119.622 118.991 119.21C118.727 118.797 118.591 118.316 118.602 117.826C118.579 117.507 118.623 117.188 118.729 116.886C118.836 116.585 119.003 116.309 119.221 116.075C119.439 115.842 119.703 115.655 119.996 115.528C120.289 115.4 120.605 115.335 120.924 115.335C121.244 115.335 121.56 115.4 121.853 115.528C122.146 115.655 122.41 115.842 122.628 116.075C122.845 116.309 123.013 116.585 123.119 116.886C123.226 117.188 123.269 117.507 123.247 117.826C123.251 118.31 123.113 118.784 122.851 119.191C122.589 119.597 122.213 119.918 121.771 120.114C122.473 120.198 123.136 120.485 123.676 120.941C124.217 121.396 124.613 122 124.815 122.677L125.003 122.454C125.517 121.765 125.851 120.958 125.975 120.107C126.099 119.256 126.009 118.388 125.713 117.58C125.543 117.124 125.306 116.696 125.009 116.31Z" fill="#FAFAFA"/>
<path d="M125.998 117.517C125.829 117.02 125.582 116.553 125.266 116.133C124.947 115.694 124.561 115.308 124.122 114.989C123.19 114.298 122.061 113.925 120.901 113.925C119.741 113.925 118.612 114.298 117.68 114.989C116.813 115.627 116.156 116.51 115.792 117.523C115.466 118.44 115.391 119.428 115.575 120.383C115.734 121.217 116.086 122.001 116.605 122.672C117.352 123.635 118.409 124.31 119.597 124.583C119.914 124.657 120.238 124.697 120.564 124.703C120.676 124.718 120.789 124.718 120.901 124.703C120.901 124.703 120.764 124.703 120.512 124.645H121.262C121.027 124.674 120.901 124.674 120.901 124.697C121.013 124.712 121.127 124.712 121.239 124.697C121.564 124.691 121.888 124.651 122.205 124.577C123.392 124.304 124.447 123.629 125.192 122.666C125.714 121.997 126.069 121.212 126.227 120.378C126.411 119.421 126.331 118.433 125.998 117.517ZM125.947 120.315C125.808 121.105 125.484 121.852 125.003 122.494L124.814 122.718C124.612 122.04 124.217 121.436 123.676 120.981C123.135 120.525 122.473 120.238 121.771 120.155C122.213 119.958 122.588 119.637 122.85 119.231C123.113 118.824 123.25 118.35 123.247 117.866C123.269 117.548 123.226 117.228 123.119 116.926C123.012 116.625 122.845 116.349 122.627 116.115C122.409 115.882 122.146 115.695 121.853 115.568C121.56 115.441 121.244 115.375 120.924 115.375C120.605 115.375 120.288 115.441 119.995 115.568C119.702 115.695 119.439 115.882 119.221 116.115C119.003 116.349 118.836 116.625 118.729 116.926C118.622 117.228 118.579 117.548 118.601 117.866C118.591 118.356 118.726 118.837 118.99 119.25C119.254 119.662 119.634 119.987 120.083 120.183C119.373 120.264 118.701 120.55 118.151 121.007C117.6 121.463 117.194 122.069 116.982 122.752C116.919 122.678 116.851 122.603 116.788 122.523C116.272 121.835 115.936 121.028 115.813 120.176C115.689 119.325 115.78 118.456 116.078 117.649C116.241 117.182 116.477 116.744 116.776 116.35C117.08 115.935 117.449 115.572 117.869 115.275C118.746 114.628 119.806 114.279 120.895 114.279C121.985 114.279 123.045 114.628 123.922 115.275C124.34 115.572 124.707 115.935 125.009 116.35C125.308 116.745 125.545 117.183 125.712 117.649C126.024 118.501 126.105 119.421 125.947 120.315Z" fill="#808080"/>
<path d="M182.703 129.417C182.703 129.417 182.869 129.416 183.178 129.354C183.636 129.259 184.059 129.037 184.397 128.713C184.669 128.45 184.878 128.13 185.011 127.775C185.144 127.421 185.196 127.042 185.163 126.665C185.163 125.755 185.163 124.714 185.163 123.535C185.163 121.179 185.163 118.301 185.135 114.954C185.135 114.119 185.135 113.238 185.135 112.363C185.158 111.918 185.058 111.475 184.848 111.083C184.637 110.691 184.323 110.364 183.939 110.137C183.149 109.64 182.12 109.857 181.13 109.811H178.052L112.263 109.863C111.887 109.861 111.517 109.951 111.183 110.123C110.85 110.295 110.563 110.545 110.346 110.852C110.127 111.154 109.988 111.506 109.94 111.876C109.911 112.257 109.901 112.639 109.912 113.021V127.008C109.928 127.362 110.024 127.708 110.192 128.02C110.361 128.332 110.597 128.602 110.884 128.81C111.167 129.017 111.494 129.156 111.839 129.216C112.201 129.253 112.564 129.266 112.926 129.256H125.89L155.461 129.291L175.392 129.348L180.815 129.376H182.223C182.543 129.376 182.703 129.376 182.703 129.376H182.223H180.815H175.392L155.461 129.428L125.89 129.468H112.926C112.544 129.484 112.162 129.469 111.782 129.422C111.387 129.358 111.013 129.201 110.69 128.965C110.362 128.729 110.092 128.423 109.901 128.068C109.71 127.713 109.602 127.319 109.585 126.917C109.585 123.865 109.585 120.784 109.585 117.672V112.946C109.585 112.546 109.585 112.168 109.585 111.733C109.643 111.311 109.802 110.909 110.049 110.561C110.298 110.211 110.626 109.925 111.007 109.726C111.388 109.527 111.81 109.421 112.24 109.417L178.029 109.468H182.606C183.108 109.455 183.603 109.581 184.036 109.834C184.45 110.08 184.788 110.435 185.015 110.859C185.242 111.284 185.348 111.762 185.323 112.243C185.323 113.135 185.323 113.999 185.323 114.834C185.323 118.175 185.323 121.053 185.295 123.415C185.295 124.594 185.295 125.635 185.295 126.545C185.321 126.933 185.261 127.322 185.119 127.684C184.976 128.046 184.755 128.372 184.471 128.638C184.12 128.964 183.683 129.182 183.212 129.268C183.051 129.342 182.879 129.392 182.703 129.417Z" fill="#808080"/>
<path d="M149.672 114.828H131.09V116.224H149.672V114.828Z" fill="#808080"/>
<path d="M163.642 122.706H131.09V124.102H163.642V122.706Z" fill="#808080"/>
<path d="M178.264 118.673H131.09V120.069H178.264V118.673Z" fill="#808080"/>
<path d="M120.507 149.651C120.759 149.68 120.896 149.685 120.896 149.708C120.896 149.731 121.022 149.68 121.256 149.657L120.507 149.651Z" fill="#808080"/>
<path d="M125.009 141.379C124.706 140.963 124.339 140.598 123.922 140.297C123.043 139.658 121.983 139.314 120.896 139.314C119.809 139.314 118.749 139.658 117.87 140.297C117.451 140.598 117.082 140.963 116.777 141.379C116.477 141.772 116.242 142.21 116.079 142.677C115.78 143.484 115.689 144.353 115.813 145.205C115.937 146.056 116.272 146.863 116.788 147.551C116.851 147.632 116.92 147.706 116.983 147.78C117.195 147.097 117.601 146.491 118.151 146.035C118.702 145.579 119.373 145.293 120.083 145.212C119.64 145.017 119.263 144.696 119 144.29C118.736 143.883 118.598 143.408 118.602 142.923C118.579 142.605 118.623 142.285 118.729 141.984C118.836 141.682 119.003 141.406 119.221 141.173C119.439 140.939 119.703 140.752 119.996 140.625C120.289 140.498 120.605 140.432 120.924 140.432C121.244 140.432 121.56 140.498 121.853 140.625C122.146 140.752 122.41 140.939 122.628 141.173C122.845 141.406 123.013 141.682 123.119 141.984C123.226 142.285 123.269 142.605 123.247 142.923C123.251 143.407 123.113 143.881 122.851 144.288C122.589 144.694 122.213 145.016 121.771 145.212C122.473 145.294 123.136 145.581 123.677 146.037C124.218 146.492 124.614 147.097 124.815 147.775C124.878 147.7 124.94 147.632 125.003 147.546C125.486 146.906 125.809 146.161 125.947 145.372C126.111 144.469 126.03 143.539 125.713 142.677C125.546 142.211 125.308 141.773 125.009 141.379Z" fill="#FAFAFA"/>
<path d="M125.998 142.569C125.829 142.073 125.582 141.608 125.266 141.19C124.947 140.751 124.561 140.365 124.122 140.046C123.189 139.358 122.06 138.987 120.901 138.987C119.742 138.987 118.613 139.358 117.68 140.046C117.239 140.363 116.853 140.749 116.536 141.19C116.221 141.609 115.972 142.074 115.798 142.569C115.473 143.486 115.397 144.473 115.581 145.429C115.737 146.263 116.09 147.047 116.611 147.718C117.356 148.684 118.413 149.361 119.603 149.634C119.92 149.708 120.244 149.749 120.569 149.754C120.681 149.769 120.795 149.769 120.907 149.754C120.907 149.754 120.77 149.726 120.518 149.697H121.267C121.033 149.697 120.907 149.697 120.907 149.748C121.019 149.763 121.132 149.763 121.244 149.748C121.57 149.743 121.894 149.703 122.211 149.628C123.209 149.388 124.117 148.866 124.827 148.125C125.537 147.383 126.019 146.454 126.216 145.446C126.405 144.485 126.33 143.491 125.998 142.569ZM125.947 145.372C125.809 146.161 125.485 146.906 125.003 147.546C124.94 147.632 124.877 147.7 124.814 147.775C124.613 147.097 124.218 146.492 123.677 146.037C123.136 145.581 122.473 145.295 121.771 145.212C122.213 145.016 122.588 144.695 122.85 144.288C123.113 143.881 123.25 143.407 123.247 142.923C123.269 142.605 123.226 142.285 123.119 141.984C123.012 141.682 122.845 141.406 122.627 141.173C122.409 140.939 122.146 140.753 121.853 140.625C121.56 140.498 121.244 140.432 120.924 140.432C120.605 140.432 120.288 140.498 119.995 140.625C119.702 140.753 119.439 140.939 119.221 141.173C119.003 141.406 118.836 141.682 118.729 141.984C118.622 142.285 118.579 142.605 118.601 142.923C118.598 143.408 118.736 143.883 118.999 144.29C119.263 144.697 119.639 145.017 120.083 145.212C119.371 145.29 118.698 145.575 118.145 146.03C117.593 146.485 117.185 147.091 116.971 147.775C116.908 147.7 116.839 147.626 116.776 147.546C116.26 146.857 115.925 146.051 115.801 145.199C115.677 144.348 115.769 143.479 116.067 142.672C116.23 142.205 116.465 141.767 116.765 141.373C117.07 140.957 117.439 140.593 117.858 140.292C118.737 139.653 119.797 139.309 120.884 139.309C121.971 139.309 123.031 139.653 123.91 140.292C124.727 140.893 125.35 141.72 125.701 142.672C126.023 143.534 126.108 144.466 125.947 145.372Z" fill="#808080"/>
<path d="M182.703 154.474C182.703 154.474 182.869 154.474 183.178 154.411C183.78 154.282 184.314 153.937 184.68 153.442C185.045 152.947 185.217 152.335 185.163 151.722C185.163 150.812 185.163 149.771 185.163 148.593C185.163 146.236 185.163 143.358 185.135 140.011C185.135 139.176 185.135 138.295 185.135 137.42C185.156 136.971 185.052 136.524 184.835 136.13C184.618 135.736 184.296 135.411 183.905 135.189C183.115 134.691 182.085 134.908 181.096 134.863H178.018L112.228 134.908C111.853 134.91 111.483 135.001 111.15 135.174C110.816 135.347 110.529 135.597 110.312 135.904C110.093 136.206 109.953 136.558 109.906 136.928C109.877 137.309 109.867 137.69 109.877 138.072V152.065C109.894 152.419 109.99 152.763 110.158 153.075C110.327 153.386 110.563 153.655 110.85 153.862C111.132 154.07 111.459 154.211 111.805 154.273C112.166 154.311 112.529 154.323 112.892 154.308H125.855L155.426 154.342L175.358 154.394L180.781 154.428H182.188H182.669C182.669 154.428 182.509 154.428 182.188 154.428H180.781L175.358 154.462L155.426 154.514L125.855 154.548H112.926C112.544 154.561 112.162 154.546 111.782 154.502C111.387 154.436 111.012 154.277 110.69 154.039C110.362 153.805 110.093 153.499 109.901 153.145C109.71 152.792 109.602 152.399 109.585 151.997C109.585 148.965 109.585 145.883 109.585 142.752V138.026C109.585 137.626 109.585 137.248 109.585 136.814C109.643 136.391 109.802 135.989 110.049 135.641C110.297 135.29 110.625 135.003 111.006 134.804C111.387 134.605 111.81 134.5 112.24 134.497L178.029 134.548H182.606C183.108 134.535 183.603 134.661 184.036 134.914C184.45 135.16 184.789 135.514 185.016 135.939C185.243 136.363 185.349 136.842 185.323 137.323C185.323 138.215 185.323 139.079 185.323 139.914C185.323 143.255 185.323 146.133 185.295 148.495C185.295 149.674 185.295 150.715 185.295 151.625C185.321 152.013 185.26 152.402 185.118 152.764C184.976 153.126 184.755 153.452 184.471 153.719C184.121 154.045 183.684 154.262 183.212 154.342C183.05 154.412 182.879 154.456 182.703 154.474Z" fill="#808080"/>
<path d="M149.672 139.885H131.09V141.281H149.672V139.885Z" fill="#808080"/>
<path d="M163.642 147.758H131.09V149.153H163.642V147.758Z" fill="#808080"/>
<path d="M178.264 143.724H131.09V145.12H178.264V143.724Z" fill="#808080"/>
<path d="M182.926 64.3079C185.031 64.3079 186.736 62.6021 186.736 60.4978C186.736 58.3936 185.031 56.6877 182.926 56.6877C180.822 56.6877 179.116 58.3936 179.116 60.4978C179.116 62.6021 180.822 64.3079 182.926 64.3079Z" fill="#808080"/>
<path d="M181.056 60.1889L182.658 61.5962L184.791 59.3994" stroke="#FAFAFA" stroke-linecap="round" stroke-linejoin="round"/>
<path d="M77.3378 230.137L76.4053 235.555L84.7577 236.167L84.7863 230.841L77.3378 230.137Z" fill="#B3B3B3"/>
<path d="M81.102 230.211C81.0794 231.867 80.8877 233.515 80.53 235.131C80.4978 234.303 80.5476 233.473 80.6787 232.654C80.7382 231.828 80.88 231.01 81.102 230.211Z" fill="#B3B3B3"/>
<path d="M84.7576 235.578C84.3533 235.584 83.9493 235.554 83.5506 235.486L80.6501 235.166C79.5059 235.034 78.4876 234.897 77.7496 234.771C77.3468 234.725 76.9499 234.637 76.5654 234.508C76.9697 234.494 77.3743 234.523 77.7725 234.594L80.6787 234.92C81.8229 235.046 82.8354 235.189 83.5734 235.315C83.9762 235.361 84.3731 235.449 84.7576 235.578Z" fill="#B3B3B3"/>
<path d="M107.486 233.095V228.232L98.3902 228.146L98.293 235.257L98.8651 235.297C101.376 235.457 111.64 235.949 113.322 235.457C115.204 234.908 107.486 233.095 107.486 233.095Z" fill="#B3B3B3"/>
<g opacity="0.38">
<path d="M101.605 235.217C101.477 234.448 101.07 233.754 100.461 233.267C99.8643 232.781 99.1072 232.536 98.3389 232.58V235.126L101.605 235.217Z" fill="#E6E6E6"/>
</g>
<g opacity="0.38">
<path d="M111.251 234.113C111.251 234.113 113.951 234.92 113.608 235.366C113.264 235.812 102.876 235.703 98.2988 235.257V235.051L110.416 235.274C110.416 235.274 110.724 234.159 111.251 234.113Z" fill="#E6E6E6"/>
</g>
<path d="M98.1787 235.046H98.3332L98.7794 235.08L100.433 235.166C101.834 235.229 103.762 235.292 105.896 235.315C108.03 235.337 109.958 235.315 111.359 235.286L113.013 235.234H113.465C113.516 235.242 113.568 235.242 113.619 235.234H113.013H111.359C109.958 235.234 108.03 235.234 105.896 235.234C103.762 235.234 101.834 235.16 100.438 235.114L98.7851 235.063H98.3332L98.1787 235.046Z" fill="#B3B3B3"/>
<path d="M110.432 235.417C110.509 235.145 110.616 234.882 110.753 234.634C110.921 234.405 111.113 234.194 111.325 234.004C111.042 234.109 110.806 234.312 110.661 234.576C110.485 234.819 110.404 235.119 110.432 235.417Z" fill="#B3B3B3"/>
<path d="M107.761 234.027C107.761 234.027 107.915 233.89 108.053 233.684C108.15 233.566 108.219 233.427 108.253 233.278C108.253 233.278 108.093 233.415 107.961 233.621C107.829 233.827 107.738 234.01 107.761 234.027Z" fill="#B3B3B3"/>
<path d="M107.029 233.633C107.029 233.633 107.195 233.558 107.355 233.421C107.515 233.284 107.624 233.152 107.601 233.129C107.578 233.106 107.441 233.198 107.28 233.341C107.12 233.484 107.011 233.587 107.029 233.633Z" fill="#B3B3B3"/>
<path d="M106.571 232.769C106.884 232.837 107.208 232.837 107.52 232.769C107.52 232.734 107.309 232.706 107.051 232.7C106.888 232.688 106.724 232.712 106.571 232.769Z" fill="#B3B3B3"/>
<path d="M106.417 232.162C106.574 232.266 106.759 232.322 106.949 232.323C107.142 232.36 107.342 232.336 107.521 232.254C107.343 232.221 107.163 232.207 106.983 232.214C106.796 232.177 106.607 232.16 106.417 232.162Z" fill="#B3B3B3"/>
<path d="M108.081 233.238C108.271 233.268 108.464 233.268 108.653 233.238C108.864 233.211 109.073 233.167 109.277 233.106C109.4 233.072 109.519 233.024 109.631 232.963C109.667 232.944 109.699 232.918 109.724 232.887C109.75 232.855 109.769 232.819 109.78 232.78C109.789 232.737 109.785 232.692 109.77 232.651C109.755 232.609 109.729 232.573 109.694 232.545C109.473 232.432 109.218 232.4 108.975 232.455C108.733 232.511 108.517 232.65 108.367 232.849C108.273 232.959 108.206 233.091 108.173 233.232C108.173 233.335 108.173 233.392 108.173 233.392C108.231 233.211 108.322 233.042 108.441 232.894C108.575 232.742 108.75 232.631 108.945 232.574C109.176 232.501 109.427 232.522 109.643 232.631C109.734 232.7 109.694 232.809 109.591 232.872C109.486 232.926 109.377 232.972 109.265 233.009C109.067 233.075 108.865 233.124 108.659 233.158C108.304 233.22 108.081 233.22 108.081 233.238Z" fill="#B3B3B3"/>
<path d="M108.23 233.266C108.23 233.266 108.327 233.129 108.304 232.866C108.285 232.712 108.23 232.565 108.144 232.437C108.097 232.349 108.028 232.274 107.944 232.221C107.86 232.168 107.763 232.138 107.663 232.134C107.634 232.139 107.605 232.15 107.58 232.167C107.555 232.183 107.533 232.205 107.516 232.23C107.499 232.255 107.487 232.283 107.481 232.313C107.475 232.342 107.475 232.373 107.48 232.402C107.493 232.495 107.526 232.583 107.578 232.66C107.653 232.79 107.743 232.911 107.846 233.02C107.937 233.125 108.051 233.207 108.178 233.261C108.178 233.261 108.064 233.152 107.904 232.969C107.815 232.857 107.735 232.738 107.663 232.614C107.583 232.488 107.532 232.265 107.663 232.242C107.795 232.219 107.955 232.374 108.047 232.494C108.128 232.608 108.182 232.739 108.207 232.877C108.227 233.006 108.234 233.136 108.23 233.266Z" fill="#B3B3B3"/>
<path d="M98.3901 232.557C98.3901 232.557 98.6476 232.557 99.0595 232.586C99.5939 232.655 100.099 232.871 100.518 233.209C100.935 233.551 101.248 234.003 101.422 234.514C101.489 234.726 101.544 234.942 101.588 235.16C101.598 235.099 101.598 235.038 101.588 234.977C101.572 234.81 101.54 234.645 101.491 234.485C101.33 233.951 101.013 233.477 100.581 233.124C100.148 232.77 99.617 232.557 99.0595 232.511C98.8941 232.493 98.7272 232.493 98.5618 232.511C98.5023 232.516 98.4441 232.532 98.3901 232.557Z" fill="#B3B3B3"/>
<path d="M99.3686 228.781C99.3005 229.401 99.268 230.023 99.2713 230.646C99.2364 231.269 99.2364 231.894 99.2713 232.517C99.3394 231.898 99.3719 231.275 99.3686 230.652C99.4035 230.029 99.4035 229.404 99.3686 228.781Z" fill="#B3B3B3"/>
<path d="M102.755 234.342C103.19 234.447 103.636 234.495 104.083 234.485C104.529 234.513 104.977 234.483 105.416 234.394C105.416 234.359 104.843 234.394 104.088 234.394C103.333 234.394 102.761 234.308 102.755 234.342Z" fill="#B3B3B3"/>
<path d="M100.953 234.319C100.953 234.319 100.999 234.445 101.056 234.582C101.113 234.719 101.148 234.84 101.182 234.84C101.216 234.84 101.228 234.697 101.182 234.536C101.136 234.376 100.993 234.296 100.953 234.319Z" fill="#B3B3B3"/>
<path d="M100.312 233.478C100.312 233.478 100.347 233.593 100.438 233.69C100.53 233.787 100.627 233.844 100.65 233.827C100.673 233.81 100.61 233.707 100.518 233.61C100.427 233.513 100.33 233.455 100.312 233.478Z" fill="#B3B3B3"/>
<path d="M99.3512 233.083C99.3512 233.112 99.4772 233.112 99.6145 233.164C99.7518 233.215 99.8432 233.284 99.8661 233.261C99.889 233.238 99.8146 233.118 99.6487 233.061C99.4828 233.003 99.3455 233.055 99.3512 233.083Z" fill="#B3B3B3"/>
<path d="M98.6646 232.895C98.6646 232.895 98.7046 232.975 98.779 233.003C98.8533 233.032 98.922 233.003 98.9334 233.003C98.9449 233.003 98.8934 232.929 98.819 232.9C98.7446 232.872 98.6646 232.866 98.6646 232.895Z" fill="#B3B3B3"/>
<path d="M93.6878 85.4517C93.7564 84.0272 93.9109 82.414 93.9109 82.414C93.9109 82.414 97.4349 82.0307 97.6466 78.4094C97.8582 74.7881 97.6466 66.3957 97.6466 66.3957L91.2278 63.1062L84.1626 68.6783L85.2324 86.8877L91.7313 87.2995C91.9819 87.3103 92.2322 87.2706 92.4673 87.183C92.7024 87.0953 92.9175 86.9613 93.0999 86.789C93.2823 86.6168 93.4284 86.4096 93.5293 86.1799C93.6303 85.9502 93.6842 85.7026 93.6878 85.4517Z" fill="#FAFAFA"/>
<path d="M94.3226 75.509C94.3226 75.509 94.3226 75.5719 94.2654 75.6635C94.2172 75.7223 94.1558 75.769 94.0863 75.7998C94.0167 75.8306 93.9409 75.8446 93.8649 75.8408C93.453 75.8408 93.0583 75.3717 92.9153 74.8168C92.8499 74.5519 92.8499 74.2751 92.9153 74.0102C92.9231 73.8895 92.9627 73.773 93.03 73.6726C93.0973 73.5721 93.19 73.4912 93.2986 73.4381C93.341 73.4197 93.3868 73.4102 93.433 73.4102C93.4793 73.4102 93.525 73.4197 93.5675 73.4381C93.6327 73.4672 93.684 73.5205 93.7105 73.5868C93.762 73.6898 93.7105 73.7584 93.7105 73.7527C93.7105 73.747 93.7105 73.6898 93.6418 73.6269C93.6092 73.5793 93.5599 73.5459 93.5037 73.5332C93.4475 73.5204 93.3885 73.5294 93.3386 73.5582C93.2623 73.6084 93.1991 73.6762 93.1543 73.7558C93.1095 73.8354 93.0844 73.9246 93.0812 74.0159C93.0368 74.2553 93.0466 74.5016 93.1098 74.7367C93.2356 75.2344 93.5789 75.6349 93.8821 75.6749C93.9429 75.6829 94.0047 75.6783 94.0637 75.6616C94.1227 75.6449 94.1777 75.6163 94.2254 75.5777C94.2883 75.5548 94.3112 75.5033 94.3226 75.509Z" fill="#EBEBEB"/>
<path d="M94.2997 77.7574C94.3454 77.6258 94.374 77.4828 94.4141 77.3455C94.4541 77.2082 94.4656 77.151 94.4999 77.048C94.5611 76.7486 94.5937 76.444 94.5971 76.1384C94.2838 76.2599 93.9416 76.2868 93.6131 76.2156C93.2846 76.1444 92.9843 75.9783 92.7493 75.738C92.5127 75.4874 92.3475 75.178 92.2711 74.8419C92.1946 74.5059 92.2096 74.1555 92.3145 73.8272C92.4649 73.4676 92.6893 73.1436 92.9732 72.8765C93.257 72.6094 93.594 72.405 93.9621 72.2769C94.6715 71.9794 95.4324 71.8306 96.1303 71.4988C97.6063 70.8009 98.6246 69.3421 99.3225 67.8146C99.8088 66.7448 100.175 65.5263 99.8431 64.3821C99.3512 62.7059 97.5548 61.8764 95.9473 61.413C93.4759 60.7151 90.7985 60.4062 88.3843 61.2929C85.9702 62.1796 83.0697 63.7471 83.0697 66.413C81.6452 66.2929 80.8329 67.5572 80.2665 69.0904C79.9878 70.0506 79.7775 71.0294 79.6372 72.0194" fill="#B3B3B3"/>
<path d="M85.0148 83.1292C83.2338 81.9005 81.8017 80.2312 80.8582 78.2841C79.9147 76.337 79.4921 74.1785 79.6315 72.0193C79.9976 64.3763 94.2997 77.7402 94.2997 77.7402C94.2997 77.7402 91.5594 86.7447 85.3065 83.112" fill="#B3B3B3"/>
<path d="M82.8924 75.5091C82.8524 75.4748 83.1384 75.2059 83.373 74.651C83.5332 74.2985 83.6174 73.9162 83.6204 73.529C83.6233 73.1418 83.5448 72.7583 83.39 72.4034C83.2352 72.0484 83.0075 71.73 82.7218 71.4687C82.436 71.2075 82.0985 71.0092 81.7311 70.8867C81.159 70.6808 80.77 70.7094 80.77 70.6579C81.1052 70.5546 81.4651 70.5647 81.794 70.6865C82.202 70.8014 82.5802 71.0037 82.9022 71.2793C83.2242 71.5549 83.4825 71.8972 83.659 72.2826C83.8261 72.6732 83.9041 73.0961 83.8872 73.5207C83.8704 73.9452 83.7592 74.3606 83.5618 74.7368C83.2586 75.3146 82.9096 75.532 82.8924 75.5091Z" fill="#B3B3B3"/>
<path d="M79.946 70.8295C79.8166 70.846 79.6854 70.8177 79.5742 70.7494C79.2529 70.5918 78.9888 70.3378 78.819 70.0228C78.5816 69.5512 78.4957 69.0177 78.573 68.4954C78.6396 67.8639 78.8342 67.2527 79.1451 66.699C79.4629 66.1318 79.9628 65.6884 80.5639 65.4405C81.0626 65.237 81.6212 65.237 82.1199 65.4405C82.4497 65.5781 82.7293 65.8138 82.9208 66.1155C83.041 66.3329 83.0582 66.4759 83.041 66.4759C82.8081 66.095 82.4563 65.8015 82.0398 65.6407C81.5909 65.4855 81.0997 65.508 80.6668 65.7036C80.1324 65.9377 79.6887 66.3393 79.4025 66.8478C78.7904 67.9405 78.6188 69.1933 78.9906 69.9199C79.195 70.3239 79.5324 70.6452 79.946 70.8295Z" fill="#B3B3B3"/>
<path d="M144.906 73.4038C144.649 73.1406 144.019 73.2665 144.019 73.2665C144.08 72.899 144.08 72.5241 144.019 72.1566C143.905 71.7962 143.098 71.8649 143.098 71.8649C143.06 71.5629 143.06 71.2573 143.098 70.9553C143.103 70.8891 143.087 70.8233 143.053 70.7662C143.019 70.7091 142.969 70.6633 142.91 70.6349C142.528 70.4806 142.119 70.4066 141.708 70.4175C141.211 70.0628 143.207 67.2711 143.951 66.3786C144.695 65.4862 144.557 64.7939 143.899 64.7939C143.447 64.7939 141.119 67.477 140.404 68.3752C139.689 69.2734 137.789 71.7791 137.727 69.7825C137.664 67.7859 136.857 66.2699 136.354 66.0125C135.85 65.755 135.312 66.3615 135.593 66.9164C135.831 67.5467 135.981 68.2071 136.039 68.8786C136.103 69.4187 136.078 69.9657 135.965 70.4976C135.756 71.4726 135.469 72.4292 135.106 73.358L135.055 73.3294C135.055 73.3294 121.113 86.699 120.106 87.6315C119.203 88.4896 101.085 86.6132 97.4577 86.2299C96.2204 86.0538 94.9718 85.9697 93.722 85.9781C92.1488 86.0468 91.8685 86.2699 90.2895 86.2871C86.5404 86.2998 82.7985 86.6136 79.0996 87.2253C75.4783 87.8374 73.4875 90.6578 72.3719 94.1646C68.7049 105.606 58.7964 132.494 57.3147 147.712C56.2101 149.717 55.2114 151.78 54.3227 153.89C53.2987 156.688 53.5504 156.785 53.8937 156.848C54.8204 157.019 55.8845 152.002 56.285 153.209C56.6854 154.416 54.2712 159.199 55.2495 159.336C56.5195 159.519 57.5378 154.245 57.658 153.804C57.7781 153.364 58.4188 153.524 58.2872 153.913C58.1042 154.485 56.3078 160.435 57.555 160.629C58.2472 160.732 58.3216 159.485 58.3216 159.485C58.3216 159.485 59.5916 153.764 60.1808 153.896C60.7701 154.027 60.1465 157.38 59.849 158.501C59.5516 159.622 59.9692 160.217 60.5641 159.92C60.976 159.731 61.9543 156.316 62.2232 155.2C62.4921 154.085 63.1557 151.012 64.0596 152.797C64.9634 154.582 66.3479 155.612 66.92 155.658C67.0517 155.652 67.1781 155.604 67.2812 155.522C67.3842 155.44 67.4586 155.327 67.4935 155.2C67.5285 155.073 67.5223 154.938 67.4757 154.815C67.4292 154.691 67.3448 154.586 67.2346 154.514C66.7506 154.042 66.3347 153.504 65.9989 152.917C65.7114 152.456 65.5026 151.949 65.3811 151.419C65.1277 150.358 64.9801 149.276 64.9406 148.186L64.8319 147.528C66.2621 140.446 71.1248 116.304 77.0344 103.02L78.7506 111.396L79.809 115.109L73.3044 131.184L101.033 130.818L96.8971 114.891L101.92 98.3008C107.36 98.4209 121.319 98.6269 123.659 97.5743C126.582 96.2699 141.725 77.1852 141.725 77.1852C142.722 76.4193 143.677 75.6 144.586 74.731C144.586 74.731 145.461 73.9759 144.906 73.4038Z" fill="#FAFAFA"/>
<path d="M72.0974 119.365C72.8983 116.619 77.0287 103.038 77.0287 103.038C77.0287 103.038 79.0596 114.108 78.5276 115.441C78.0358 116.584 77.4523 117.686 76.7827 118.736C72.0974 125.875 72.7095 129.445 72.7095 129.445L101.033 128.581C101.102 124.622 98.7449 115.423 98.2644 113.942C97.7838 112.46 99.4086 107.649 99.4086 107.649C99.4086 107.649 102.612 104.399 102.486 102.729C102.42 101.228 102.228 99.7357 101.914 98.2667L122.893 98.6671L120.547 87.2655L100.318 85.7838L93.5905 85.1545C90.2038 88.015 85.1294 85.1545 85.1294 85.1545C78.6763 85.7838 77.7324 86.8193 75.0836 89.468C71.9372 92.6031 63.436 116.59 63.436 116.59L72.0974 119.365Z" fill="#B3B3B3"/>
<path d="M88.8476 116.602C88.3548 116.688 87.8533 116.712 87.3545 116.676C86.4277 116.676 85.1577 116.613 83.7561 116.476C82.3545 116.338 81.0959 116.133 80.192 115.955C79.6957 115.893 79.2093 115.768 78.7446 115.583C79.2421 115.581 79.7385 115.629 80.2263 115.726C81.1417 115.841 82.3945 116.001 83.7904 116.144C85.1863 116.287 86.4449 116.379 87.3602 116.441C87.8602 116.444 88.3586 116.498 88.8476 116.602Z" fill="#B3B3B3"/>
<path d="M90.7815 114.193C90.2908 114.433 89.7718 114.61 89.2369 114.719C87.9648 115.056 86.6706 115.303 85.3639 115.457C84.0581 115.614 82.7427 115.677 81.4279 115.646C80.8823 115.662 80.3368 115.613 79.8032 115.497C80.3412 115.421 80.8849 115.392 81.4279 115.412C82.4291 115.377 83.8078 115.309 85.3295 115.126C86.8513 114.943 88.1899 114.697 89.1854 114.491C89.7075 114.344 90.2417 114.245 90.7815 114.193Z" fill="#B3B3B3"/>
<path d="M100.312 103.45C100.306 103.936 100.241 104.42 100.118 104.891C99.952 105.778 99.6946 106.991 99.3685 108.324C99.0424 109.657 98.7106 110.852 98.4474 111.716C98.3376 112.191 98.1705 112.65 97.9497 113.084C97.9843 112.598 98.0745 112.118 98.2186 111.653C98.4589 110.658 98.7392 109.514 99.0424 108.249C99.3456 106.985 99.6431 105.841 99.8891 104.817C99.9785 104.347 100.121 103.888 100.312 103.45Z" fill="#B3B3B3"/>
<path d="M72.5207 129.639L100.839 128.776L113.161 176.899L110.873 232.099H95.8845L97.7552 178.095L86.7998 144.571L88.4646 232.671L73.3273 232.895L71.777 150.177C71.714 147.837 70.9417 142.551 71.2049 140.229L72.5207 129.639Z" fill="#808080"/>
<path d="M90.5757 145.251C90.1108 145.284 89.6436 145.257 89.1855 145.171C88.3331 145.068 87.1604 144.891 85.8789 144.634C84.5974 144.376 83.4418 144.062 82.618 143.85C82.1615 143.752 81.7193 143.596 81.3022 143.386C81.3022 143.295 83.3846 143.793 85.9418 144.307C88.499 144.822 90.5871 145.154 90.5757 145.251Z" fill="#B3B3B3"/>
<path d="M110.753 229.073C110.753 229.165 107.36 229.239 103.173 229.239C98.9849 229.239 96.0044 229.107 96.0044 229.016C96.0044 228.924 98.9849 228.907 103.173 228.907C107.36 228.907 110.753 229.01 110.753 229.073Z" fill="#B3B3B3"/>
<path d="M88.2527 229.239C88.2527 229.33 84.9575 229.405 80.8957 229.405C76.8339 229.405 73.5444 229.33 73.5444 229.239C73.5444 229.147 76.8339 229.073 80.8957 229.073C84.9575 229.073 88.2527 229.147 88.2527 229.239Z" fill="#B3B3B3"/>
<path d="M86.405 229.239C86.3135 229.239 85.913 210.194 85.5125 186.699C85.1121 163.204 84.8661 144.159 84.9405 144.153C85.0148 144.148 85.4496 163.221 85.8501 186.676C86.2505 210.132 86.4965 229.233 86.405 229.239Z" fill="#B3B3B3"/>
<path d="M108.739 229.073C108.733 228.985 108.733 228.898 108.739 228.81C108.739 228.621 108.739 228.369 108.739 228.043C108.739 227.357 108.785 226.367 108.825 225.103C108.911 222.534 109.042 218.844 109.197 214.29C109.546 205.137 110.032 192.551 110.564 178.615C110.564 178.484 110.564 178.358 110.564 178.238V178.284C107.206 164.845 104.174 152.694 101.983 143.884L99.4369 133.472C99.1451 132.254 98.9163 131.304 98.7618 130.612C98.6894 130.303 98.6322 130.057 98.5902 129.874C98.5687 129.791 98.5534 129.707 98.5444 129.622C98.5807 129.701 98.6076 129.783 98.6245 129.868C98.6703 130.046 98.7389 130.286 98.8248 130.595C98.9964 131.258 99.2481 132.208 99.5627 133.421C100.198 135.887 101.107 139.434 102.229 143.81C104.454 152.614 107.52 164.754 110.919 178.186V178.238C110.919 178.352 110.919 178.484 110.919 178.61C110.346 192.534 109.832 205.137 109.454 214.279C109.254 218.856 109.088 222.523 108.973 225.091C108.911 226.356 108.859 227.34 108.825 228.032C108.825 228.352 108.79 228.604 108.779 228.793C108.775 228.887 108.762 228.981 108.739 229.073Z" fill="#B3B3B3"/>
<path d="M103.854 177.116C102.776 177.469 101.667 177.716 100.541 177.854C99.1685 178.089 97.9785 178.249 97.4579 178.283V178.152C97.6296 178.198 97.7211 178.238 97.7154 178.261C97.7097 178.284 97.6124 178.261 97.4351 178.261H97.0518L97.4351 178.146C97.9328 177.997 99.1113 177.757 100.49 177.517C101.595 177.274 102.722 177.14 103.854 177.116Z" fill="#B3B3B3"/>
<path d="M103.567 178.953C102.572 178.993 101.574 178.947 100.587 178.816C99.5897 178.79 98.5965 178.681 97.6177 178.49C98.6123 178.353 99.6208 178.353 100.615 178.49C101.616 178.509 102.609 178.665 103.567 178.953Z" fill="#B3B3B3"/>
<path d="M72.395 130.652C73.0758 131.619 74.0541 131.956 75.1868 132.139C76.3285 132.275 77.4834 132.254 78.6193 132.077C85.9305 131.264 93.6765 130.515 100.833 128.776C91.5655 129.291 81.7829 129.119 72.5152 129.639C72.5152 129.639 72.4351 130.274 72.4179 130.429" fill="#B3B3B3"/>
<path d="M81.9487 143.718L87.1661 163.987L86.8 144.571L81.9487 143.718Z" fill="#B3B3B3"/>
<path d="M80.896 71.0641C78.8823 70.5263 76.777 72.6716 76.7084 74.754C76.7084 75.3261 76.7713 76.0355 76.3479 76.4702C75.9246 76.905 75.1695 76.7849 74.5344 76.8364C73.8858 76.901 73.2788 77.1852 72.8137 77.6419C72.3487 78.0986 72.0536 78.7005 71.9772 79.3478C71.8857 80.2746 72.2576 81.27 71.8685 82.1167C71.4795 82.9634 70.5814 83.3066 69.9578 83.9359C69.5795 84.3642 69.2949 84.8669 69.1225 85.4118C68.9501 85.9566 68.8936 86.5315 68.9566 87.0995C69.092 88.2349 69.3906 89.3447 69.8434 90.3947C70.2095 91.373 70.6901 92.4599 71.674 92.8089H80.1351L80.7701 89.6167L81.8056 92.8089H83.1843L82.4406 72.0824C82.4406 72.0824 82.4349 71.4702 80.896 71.0641Z" fill="#B3B3B3"/>
<path d="M69.3227 80.961C69.3227 80.961 69.2311 80.961 69.0938 81.0068C68.9955 81.0604 68.9206 81.1486 68.8836 81.2543C68.8466 81.36 68.8502 81.4757 68.8936 81.5789C68.9998 81.8125 69.1912 81.9967 69.4286 82.094C69.6661 82.1912 69.9317 82.1941 70.1713 82.1021C70.4108 82.0101 70.6062 81.8301 70.7175 81.5989C70.8288 81.3677 70.8476 81.1027 70.7701 80.8581C70.6494 80.5836 70.4936 80.3259 70.3067 80.0915C69.8732 79.5135 69.686 78.7875 69.7861 78.072C69.8373 77.6754 69.9796 77.2959 70.202 76.9634C70.4243 76.631 70.7205 76.3544 71.0675 76.1555C71.4389 75.9381 71.8565 75.8118 72.286 75.787C72.7156 75.7621 73.145 75.8394 73.5389 76.0125C74.317 76.3501 74.992 76.8478 75.7414 76.7448C75.9104 76.7381 76.0749 76.6891 76.2199 76.6021C76.3649 76.5151 76.4856 76.393 76.571 76.2471C76.6915 75.922 76.7307 75.5725 76.6854 75.2288C76.6402 74.5723 76.7358 73.9137 76.9657 73.2971C77.1956 72.6804 77.5544 72.12 78.0183 71.6533C78.6715 71.0414 79.5377 70.7089 80.4325 70.7265C80.6697 70.7332 80.9047 70.7737 81.1305 70.8466C81.2116 70.8663 81.2889 70.8991 81.3593 70.9439C81.0535 70.8856 80.7436 70.8512 80.4325 70.8409C79.5746 70.8606 78.7563 71.2063 78.1442 71.8077C77.7116 72.2619 77.3804 72.8027 77.1723 73.3944C76.9642 73.9861 76.8841 74.6153 76.9371 75.2402C76.9882 75.6271 76.9409 76.0206 76.7998 76.3844C76.6944 76.5742 76.5426 76.7342 76.3585 76.8493C76.1743 76.9644 75.964 77.0308 75.7472 77.0423C75.3232 77.0828 74.8962 77.0077 74.5115 76.8249C74.1224 76.659 73.7678 76.4473 73.4016 76.2929C73.0498 76.1387 72.6667 76.0692 72.2832 76.0901C71.8997 76.111 71.5264 76.2216 71.1934 76.413C70.8834 76.5916 70.6188 76.8394 70.4203 77.1371C70.2219 77.4348 70.0949 77.7744 70.0492 78.1292C69.9509 78.7815 70.1155 79.4461 70.5069 79.9771C70.7023 80.2306 70.862 80.5097 70.9817 80.8066C71.0356 80.9545 71.0593 81.1117 71.0515 81.2689C71.0436 81.4261 71.0043 81.5801 70.936 81.7219C70.8175 81.9733 70.6152 82.1756 70.3639 82.294C70.134 82.3963 69.8774 82.4224 69.6316 82.3684C69.4359 82.3311 69.2541 82.2411 69.1059 82.108C68.9577 81.9749 68.8487 81.8038 68.7906 81.6132C68.7487 81.4908 68.755 81.3571 68.8081 81.2392C68.8612 81.1212 68.9573 81.0279 69.0767 80.9782C69.2426 80.8981 69.3284 80.961 69.3227 80.961Z" fill="#B3B3B3"/>
<path d="M102.097 98.0835C101.881 98.1135 101.661 98.1135 101.445 98.0835C100.85 98.0116 100.27 97.8435 99.7287 97.5858C98.9213 97.207 98.2007 96.6655 97.612 95.9954C96.8647 95.1837 96.3611 94.178 96.1587 93.0935C95.9564 92.0089 96.0635 90.8892 96.4679 89.8627C96.7806 89.0268 97.2637 88.265 97.8866 87.6258C98.2999 87.1924 98.781 86.8291 99.3111 86.5503C99.4988 86.4377 99.7036 86.3566 99.9175 86.3101C99.2258 86.7046 98.594 87.1958 98.0411 87.7689C97.463 88.4037 97.0159 89.1463 96.7253 89.9542C96.3486 90.9348 96.2492 92.0001 96.4379 93.0335C96.6266 94.0668 97.0962 95.0282 97.7951 95.8123C98.354 96.4649 99.0339 97.003 99.7974 97.397C100.53 97.7285 101.303 97.9595 102.097 98.0835Z" fill="#B3B3B3"/>
</g>
<defs>
<filter id="filter0_d_203_107" x="0" y="0" width="285" height="245" filterUnits="userSpaceOnUse" color-interpolation-filters="sRGB">
<feFlood flood-opacity="0" result="BackgroundImageFix"/>
<feColorMatrix in="SourceAlpha" type="matrix" values="0 0 0 0 0 0 0 0 0 0 0 0 0 0 0 0 0 0 127 0" result="hardAlpha"/>
<feOffset dy="4"/>
<feGaussianBlur stdDeviation="2"/>
<feComposite in2="hardAlpha" operator="out"/>
<feColorMatrix type="matrix" values="0 0 0 0 0 0 0 0 0 0 0 0 0 0 0 0 0 0 0.25 0"/>
<feBlend mode="normal" in2="BackgroundImageFix" result="effect1_dropShadow_203_107"/>
<feBlend mode="normal" in="SourceGraphic" in2="effect1_dropShadow_203_107" result="shape"/>
</filter>
<clipPath id="clip0_203_107">
<rect width="277" height="237" fill="white" transform="translate(4)"/>
</clipPath>
</defs>
</svg>
